<svg id="Layer_1" data-name="Layer 1" xmlns="http://www.w3.org/2000/svg" viewBox="0 0 225.07 56.77"><defs><style>.cls-1{fill:#f2f2f0;}</style></defs><title>nearform-footer</title><path class="cls-1" d="M32.6,1H24.4a1.18,1.18,0,0,0-1.18,1.18V12.23L16.78,3.77A7,7,0,0,0,11.19,1H4.82A3.82,3.82,0,0,0,1,4.82V29.93a3.83,3.83,0,0,0,3.82,3.83h8.23a1.18,1.18,0,0,0,1.18-1.18V22.42L20.64,31a7,7,0,0,0,5.61,2.81H32.6a3.84,3.84,0,0,0,3.83-3.83V4.82A3.83,3.83,0,0,0,32.6,1ZM12,31.38H4.8a1.52,1.52,0,0,1-1.52-1.51V8.13L12,19.57Zm20.75,0H26.22a4.72,4.72,0,0,1-3.74-1.85L3.83,5.17a1.13,1.13,0,0,1,.9-1.82h6.49A4.68,4.68,0,0,1,15,5.2L33.64,29.56A1.13,1.13,0,0,1,32.74,31.38Zm1.42-4.84-8.7-11.4V3.35h7.19a1.51,1.51,0,0,1,1.51,1.51Z" transform="translate(-1 -1)"/><path class="cls-1" d="M80.22,31H75L62,16.06V31H55.24V3.81h5.15L73.48,19.09V3.81h6.74Z" transform="translate(-1 -1)"/><path class="cls-1" d="M101.27,23l0,.12H87.5a4.19,4.19,0,0,0,4.35,3.12,3.32,3.32,0,0,0,3-1.4h6.39c-.92,4-4.63,6.5-9.42,6.5-6.35,0-10.57-4.23-10.57-10.13s4.11-10.1,10.29-10.1c5.63,0,9.9,3.87,9.9,9.7A13.34,13.34,0,0,1,101.27,23ZM87.42,19.37h7.9a3.58,3.58,0,0,0-3.83-3.23A4,4,0,0,0,87.42,19.37Z" transform="translate(-1 -1)"/><path class="cls-1" d="M123.46,31H117V29.87a9.65,9.65,0,0,1-5.31,1.48,9.82,9.82,0,0,1-9.62-10.1,9.79,9.79,0,0,1,9.62-10.1A9.65,9.65,0,0,1,117,12.63v-1h6.46ZM117,24.24v-6a5,5,0,0,0-4-1.84,4.61,4.61,0,0,0-4.55,4.83A4.58,4.58,0,0,0,113,26,5,5,0,0,0,117,24.24Z" transform="translate(-1 -1)"/><path class="cls-1" d="M138.09,17.42c-3.15.12-5.15,1-6.66,2.47V31H125V11.59h6.47v2.08a9.66,9.66,0,0,1,6.66-2.4Z" transform="translate(-1 -1)"/><path class="cls-1" d="M159.24,9.76V3.81H139V31h6.75V21.37h10.12v-.12a11.79,11.79,0,0,1,1.44-5.75H145.75V9.76Z" transform="translate(-1 -1)"/><path class="cls-1" d="M191.82,17.42c-3.15.12-5.14,1-6.66,2.47V31h-6.47V11.59h6.47v2.08a9.67,9.67,0,0,1,6.66-2.4Z" transform="translate(-1 -1)"/><path class="cls-1" d="M225,19.89V31h-6.51v-10c0-2.75-1.31-4.07-3.47-4.07a3.77,3.77,0,0,0-3,1.6c0,.47.08.95.08,1.43V31h-6.47v-10c0-2.75-1.35-4.07-3.47-4.07a3.65,3.65,0,0,0-2.91,1.72V31h-6.47V11.59h6.47v1.16A6.79,6.79,0,0,1,204.16,11a7.58,7.58,0,0,1,5.94,2.6A9.45,9.45,0,0,1,217,11C221.6,11,225,14.39,225,19.89Z" transform="translate(-1 -1)"/><path class="cls-1" d="M177.9,21.25a10.5,10.5,0,0,1-21,0c0-5.83,4.39-10.1,10.49-10.1S177.9,15.42,177.9,21.25Zm-6.11,0a4.37,4.37,0,1,0-8.74,0,4.38,4.38,0,1,0,8.74,0Z" transform="translate(-1 -1)"/><path class="cls-1" d="M1.72,45.69H7.21v1.47H3.29v2.27H6.67v1.46H3.29v2.43H7.34v1.46H1.72Z" transform="translate(-1 -1)"/><path class="cls-1" d="M7.86,48H9.47l1.69,5.35h.12L13,48H14.6l-2.32,6.8H10.2Z" transform="translate(-1 -1)"/><path class="cls-1" d="M14.79,51.38a3.48,3.48,0,0,1,3.59-3.57,3.57,3.57,0,1,1,0,7.14A3.47,3.47,0,0,1,14.79,51.38Zm5.62,0a2,2,0,1,0-2,2.12A2,2,0,0,0,20.41,51.38Z" transform="translate(-1 -1)"/><path class="cls-1" d="M22.88,53.43h1.27v-7H22.88V45h2.8v8.39H27v1.35H22.88Z" transform="translate(-1 -1)"/><path class="cls-1" d="M28.19,52.43V48h1.53V52a1.36,1.36,0,0,0,1.38,1.43A1.47,1.47,0,0,0,32.58,52V48h1.53v6.8H32.58V54h-.12a2,2,0,0,1-1.83,1A2.39,2.39,0,0,1,28.19,52.43Z" transform="translate(-1 -1)"/><path class="cls-1" d="M36.46,52.74V49.33H35.28V48h1.27V46.07H38V48h1.92v1.35H38v3.4c0,.48.19.69.66.69h1.18v1.36h-1.2C37.33,54.78,36.46,54.19,36.46,52.74Z" transform="translate(-1 -1)"/><path class="cls-1" d="M42,49.33H40.84V48h2.72v6.8H42ZM41.84,46a1,1,0,0,1,1.95,0,1,1,0,0,1-1.95,0Z" transform="translate(-1 -1)"/><path class="cls-1" d="M45,51.38A3.6,3.6,0,1,1,48.54,55,3.49,3.49,0,0,1,45,51.38Zm5.63,0a2,2,0,1,0-2,2.12A2,2,0,0,0,50.58,51.38Z" transform="translate(-1 -1)"/><path class="cls-1" d="M53.37,48H54.9v.78H55a2,2,0,0,1,1.83-.95,2.39,2.39,0,0,1,2.44,2.52v4.45H57.76V50.69a1.36,1.36,0,0,0-1.38-1.43,1.47,1.47,0,0,0-1.48,1.51v4H53.37Z" transform="translate(-1 -1)"/><path class="cls-1" d="M60.4,51.38a3.29,3.29,0,0,1,3.16-3.57,2.45,2.45,0,0,1,2.07,1h.12V48h1.53v5.21a.28.28,0,0,0,.31.3h.3v1.29H66.73a.92.92,0,0,1-1-.85h-.12a2.29,2.29,0,0,1-2,1A3.3,3.3,0,0,1,60.4,51.38Zm5.37,0a1.92,1.92,0,0,0-1.91-2.12A2,2,0,0,0,62,51.4a1.92,1.92,0,1,0,3.82,0Z" transform="translate(-1 -1)"/><path class="cls-1" d="M69.06,48h1.52v1h.1a2,2,0,0,1,1.79-1.17H73v1.53H72.3c-1.11,0-1.71.8-1.71,2.08v3.36H69.06Z" transform="translate(-1 -1)"/><path class="cls-1" d="M74.23,56.37h1a.87.87,0,0,0,.9-.64l.37-.95H76.1L73.76,48h1.65L77,53.32h.11L78.89,48h1.66l-3.19,8.45a2.12,2.12,0,0,1-2.16,1.34h-1Z" transform="translate(-1 -1)"/><path class="cls-1" d="M84.12,52.85l1.46-.33a1.23,1.23,0,0,0,1.35,1c.74,0,1.13-.27,1.13-.72,0-1.38-3.69-.22-3.69-3,0-1.15,1-2,2.51-2a2.41,2.41,0,0,1,2.58,1.88l-1.36.38a1.09,1.09,0,0,0-1.22-.87c-.65,0-1,.29-1,.69,0,1.27,3.79.08,3.79,2.82C89.63,54,88.56,55,86.89,55A2.49,2.49,0,0,1,84.12,52.85Z" transform="translate(-1 -1)"/><path class="cls-1" d="M90.47,51.38A3.59,3.59,0,1,1,94.06,55,3.49,3.49,0,0,1,90.47,51.38Zm5.63,0a2,2,0,1,0-2,2.12A2,2,0,0,0,96.1,51.38Z" transform="translate(-1 -1)"/><path class="cls-1" d="M99.44,49.33h-1.2V48h1.2v-.9c0-1.44.87-2,2.18-2h1.14v1.34h-1.12c-.48,0-.67.24-.67.72V48h1.83v1.35H101v5.45H99.44Z" transform="translate(-1 -1)"/><path class="cls-1" d="M104.63,52.74V49.33h-1.18V48h1.27V46.07h1.46V48h1.92v1.35h-1.92v3.4c0,.48.19.69.66.69H108v1.36h-1.2C105.5,54.78,104.63,54.19,104.63,52.74Z" transform="translate(-1 -1)"/><path class="cls-1" d="M109,48h1.63l1.22,5.35H112L113.23,48h2l1.23,5.35h.12L117.85,48h1.62l-1.8,6.8h-2.16l-1.23-5.33h-.08L113,54.78H110.8Z" transform="translate(-1 -1)"/><path class="cls-1" d="M119.66,51.38a3.29,3.29,0,0,1,3.17-3.57,2.44,2.44,0,0,1,2.06,1H125V48h1.53v5.21a.28.28,0,0,0,.31.3h.3v1.29H126a.92.92,0,0,1-1-.85h-.12a2.27,2.27,0,0,1-2,1A3.3,3.3,0,0,1,119.66,51.38Zm5.37,0a1.92,1.92,0,0,0-1.91-2.12,2,2,0,0,0-1.91,2.12,1.92,1.92,0,1,0,3.82,0Z" transform="translate(-1 -1)"/><path class="cls-1" d="M128.32,48h1.52v1h.1a2,2,0,0,1,1.79-1.17h.51v1.53h-.67c-1.12,0-1.72.8-1.72,2.08v3.36h-1.53Z" transform="translate(-1 -1)"/><path class="cls-1" d="M132.68,51.4a3.43,3.43,0,0,1,3.4-3.59,3.26,3.26,0,0,1,3.34,3.53v.43h-5.15a1.76,1.76,0,0,0,1.87,1.87,1.73,1.73,0,0,0,1.71-1.14l1.4.33a3,3,0,0,1-3.1,2.12A3.35,3.35,0,0,1,132.68,51.4Zm5.18-.74a1.67,1.67,0,0,0-1.78-1.51,1.76,1.76,0,0,0-1.8,1.51Z" transform="translate(-1 -1)"/><path class="cls-1" d="M140.25,54a1,1,0,0,1,1-1,.94.94,0,0,1,.94,1,.92.92,0,0,1-.94.93A1,1,0,0,1,140.25,54Z" transform="translate(-1 -1)"/><path class="cls-1" d="M152.24,52.83h-3.93l-.67,2H146l3.18-9.09h2.21l3.16,9.09H152.9Zm-.49-1.43-1.42-4.16h-.13l-1.41,4.16Z" transform="translate(-1 -1)"/><path class="cls-1" d="M154.58,51.38a3.46,3.46,0,0,1,3.52-3.57,3.24,3.24,0,0,1,3.32,2.55l-1.45.35a1.79,1.79,0,0,0-1.83-1.45,2.12,2.12,0,0,0,0,4.24A1.78,1.78,0,0,0,160,52.07l1.46.35A3.23,3.23,0,0,1,158.11,55,3.44,3.44,0,0,1,154.58,51.38Z" transform="translate(-1 -1)"/><path class="cls-1" d="M162.22,51.38a3.46,3.46,0,0,1,3.52-3.57,3.25,3.25,0,0,1,3.32,2.55l-1.46.35a1.78,1.78,0,0,0-1.83-1.45,2.12,2.12,0,0,0,0,4.24,1.78,1.78,0,0,0,1.83-1.43l1.45.35A3.23,3.23,0,0,1,165.75,55,3.44,3.44,0,0,1,162.22,51.38Z" transform="translate(-1 -1)"/><path class="cls-1" d="M169.85,51.4a3.43,3.43,0,0,1,3.4-3.59,3.26,3.26,0,0,1,3.34,3.53v.43h-5.15a1.76,1.76,0,0,0,1.87,1.87A1.73,1.73,0,0,0,175,52.5l1.4.33a3.06,3.06,0,0,1-3.1,2.12A3.35,3.35,0,0,1,169.85,51.4Zm5.18-.74a1.67,1.67,0,0,0-1.78-1.51,1.76,1.76,0,0,0-1.8,1.51Z" transform="translate(-1 -1)"/><path class="cls-1" d="M177.5,53.43h1.27v-7H177.5V45h2.81v8.39h1.27v1.35H177.5Z" transform="translate(-1 -1)"/><path class="cls-1" d="M182.36,51.4a3.43,3.43,0,0,1,3.4-3.59,3.26,3.26,0,0,1,3.34,3.53v.43h-5.16a1.77,1.77,0,0,0,1.87,1.87,1.74,1.74,0,0,0,1.72-1.14l1.4.33a3.06,3.06,0,0,1-3.1,2.12A3.35,3.35,0,0,1,182.36,51.4Zm5.18-.74a1.67,1.67,0,0,0-1.78-1.51,1.76,1.76,0,0,0-1.8,1.51Z" transform="translate(-1 -1)"/><path class="cls-1" d="M190.33,48h1.52v1H192a2,2,0,0,1,1.79-1.17h.5v1.53h-.67c-1.12,0-1.71.8-1.71,2.08v3.36h-1.54Z" transform="translate(-1 -1)"/><path class="cls-1" d="M194.7,51.38a3.29,3.29,0,0,1,3.17-3.57,2.44,2.44,0,0,1,2.06,1h.12V48h1.53v5.21a.28.28,0,0,0,.31.3h.3v1.29H201a.92.92,0,0,1-1-.85h-.12a2.27,2.27,0,0,1-2,1A3.3,3.3,0,0,1,194.7,51.38Zm5.37,0a1.92,1.92,0,0,0-1.91-2.12,1.94,1.94,0,0,0-1.9,2.12,1.91,1.91,0,1,0,3.81,0Z" transform="translate(-1 -1)"/><path class="cls-1" d="M204,52.74V49.33h-1.18V48h1.27V46.07h1.46V48h1.92v1.35h-1.92v3.4c0,.48.19.69.66.69h1.18v1.36h-1.19C204.89,54.78,204,54.19,204,52.74Z" transform="translate(-1 -1)"/><path class="cls-1" d="M208.33,51.4a3.43,3.43,0,0,1,3.41-3.59,3.26,3.26,0,0,1,3.33,3.53v.43h-5.15a1.76,1.76,0,0,0,1.87,1.87,1.73,1.73,0,0,0,1.71-1.14l1.4.33A3,3,0,0,1,211.8,55,3.35,3.35,0,0,1,208.33,51.4Zm5.18-.74a1.66,1.66,0,0,0-1.77-1.51,1.77,1.77,0,0,0-1.81,1.51Z" transform="translate(-1 -1)"/><path class="cls-1" d="M215.85,51.38A3.29,3.29,0,0,1,219,47.81a2.48,2.48,0,0,1,2.1,1h.11V45h1.53v9.74h-1.5V54h-.12a2.4,2.4,0,0,1-2,1A3.33,3.33,0,0,1,215.85,51.38Zm5.39,0a2,2,0,0,0-1.92-2.15,2.15,2.15,0,1,0,1.92,2.15Z" transform="translate(-1 -1)"/><path class="cls-1" d="M224.16,54a1,1,0,0,1,1-1,.94.94,0,0,1,.94,1,.92.92,0,0,1-.94.93A1,1,0,0,1,224.16,54Z" transform="translate(-1 -1)"/></svg>