<svg id="0abb00c3-220c-4199-a677-89cc0bb04499" data-name="Layer 1" xmlns="http://www.w3.org/2000/svg" width="204.6" height="56.4" viewBox="0 0 204.6 56.4"><title>google-cloud-platform-logo</title><rect width="204.6" height="56.4" rx="4.8" ry="4.8" fill="#fff"/><path d="M75.953,20.171a7,7,0,0,1,7.112-7.111A6.541,6.541,0,0,1,88.09,15.3L86.853,16.46a4.63,4.63,0,0,0-3.788-1.7,5.157,5.157,0,0,0-5.256,5.411,5.157,5.157,0,0,0,5.256,5.411,5.317,5.317,0,0,0,4.174-2.009l1.237,1.236a7,7,0,0,1-5.411,2.4A6.843,6.843,0,0,1,75.953,20.171Zm13.838,6.8h1.777v-13.6H89.791Zm12.677-4.638a4.8,4.8,0,1,1-9.586,0,4.8,4.8,0,1,1,9.586,0Zm-1.778,0a3.037,3.037,0,1,0-6.03,0,3.125,3.125,0,0,0,3.015,3.4A3.22,3.22,0,0,0,100.69,22.336Zm9.663,4.638V25.66h-.077a3.672,3.672,0,0,1-2.938,1.623c-2.4,0-3.556-1.623-3.556-3.942V17.62h1.778v5.412c0,1.932,1,2.628,2.319,2.628a2.682,2.682,0,0,0,2.474-2.861V17.7h1.778v9.353h-1.778Zm3.092-4.638a4.694,4.694,0,0,1,4.406-4.948,3.778,3.778,0,0,1,3.17,1.624h.077l-.077-1.314V13.369H122.8V26.974h-1.624V25.66H121.1a3.776,3.776,0,0,1-3.169,1.623A4.7,4.7,0,0,1,113.445,22.336Zm7.73,0c0-2.165-1.391-3.4-2.937-3.4s-2.938,1.237-2.938,3.4a3.115,3.115,0,0,0,2.938,3.4A3.212,3.212,0,0,0,121.175,22.336Zm6.417,4.638v-13.6h4.638a4.142,4.142,0,0,1,4.251,4.019,4.142,4.142,0,0,1-4.251,4.02h-2.86V26.9h-1.778Zm4.715-7.19a2.4,2.4,0,1,0,0-4.792H129.37v4.792Zm5.411,7.19H139.5v-13.6h-1.778Zm3.247-2.783c0-2.087,1.933-3.247,4.1-3.247a6.629,6.629,0,0,1,2.551.541v-.232a2.467,2.467,0,0,0-4.638-.927l-1.623-.7a4.232,4.232,0,0,1,7.962,1.778v5.643h-1.7V25.737h-.077a3.6,3.6,0,0,1-3.093,1.624C142.588,27.283,140.965,26.123,140.965,24.191Zm6.648-1.237a3.764,3.764,0,0,0-2.241-.618c-1.856,0-2.552,1.005-2.552,1.855,0,1.005,1,1.469,1.933,1.469A2.875,2.875,0,0,0,147.613,22.954Zm4.174,1.237v-4.87h-1.623V17.7h1.623V14.837h1.778V17.7h2.32v1.623h-2.32v4.792c0,1.083.464,1.547,1.237,1.547a1.267,1.267,0,0,0,.773-.155l.619,1.469a3.759,3.759,0,0,1-1.392.232A2.8,2.8,0,0,1,151.787,24.191Zm11.364-10.668-.618,1.469a2.3,2.3,0,0,0-.774-.155,1.481,1.481,0,0,0-1.545,1.623v1.16h2.4v1.624h-2.4v7.73h-1.779v-7.73h-1.7V17.62h1.778V16.46a3.046,3.046,0,0,1,3.324-3.169A3.343,3.343,0,0,1,163.151,13.523Zm9.585,8.813a4.795,4.795,0,1,1-9.585,0,4.795,4.795,0,1,1,9.585,0Zm-1.777,0a3.037,3.037,0,1,0-6.03,0,3.125,3.125,0,0,0,3.015,3.4A3.22,3.22,0,0,0,170.959,22.336Zm3.169,4.638V17.7h1.7v1.546h.077a3.042,3.042,0,0,1,2.706-1.779,3.325,3.325,0,0,1,1.314.233l-.7,1.623a2.889,2.889,0,0,0-.927-.155,2.492,2.492,0,0,0-2.4,2.706v5.1Zm6.725-9.276h1.7v1.314h.078a3.557,3.557,0,0,1,2.86-1.624,2.978,2.978,0,0,1,2.937,1.778,3.7,3.7,0,0,1,3.247-1.778c2.319,0,3.324,1.624,3.324,3.943v5.72h-1.778V21.64c0-1.932-.773-2.551-2.087-2.551a2.733,2.733,0,0,0-2.4,2.86v5.179h-1.777V21.717c0-1.933-.774-2.551-2.088-2.551a2.734,2.734,0,0,0-2.4,2.861v5.179H180.7V17.7Z" fill="#656763" fill-rule="evenodd"/><path d="M42,17.254a5.022,5.022,0,1,0,5.036,5.022A4.945,4.945,0,0,0,42,17.254Zm0,8.053a2.908,2.908,0,0,1-2.838-3.046,2.845,2.845,0,1,1,5.675,0A2.908,2.908,0,0,1,42,25.307Z" fill="#fbbc05" fill-rule="evenodd"/><path d="M31,25.307a2.908,2.908,0,0,0,2.838-3.046,2.845,2.845,0,1,0-5.676,0A2.908,2.908,0,0,0,31,25.307Zm0-8.053a5.022,5.022,0,1,1-5.037,5.022A4.945,4.945,0,0,1,31,17.254Z" fill="#ea4335" fill-rule="evenodd"/><path d="M52.963,25.307a2.788,2.788,0,0,0,2.674-3.031,2.824,2.824,0,0,0-2.674-3.06,2.9,2.9,0,0,0-2.794,3.06A2.888,2.888,0,0,0,52.963,25.307Zm2.525-7.755H57.6V26.57c0,3.714-2.184,5.23-4.769,5.23a4.786,4.786,0,0,1-4.458-2.972l1.917-.8a2.768,2.768,0,0,0,2.526,1.783c1.649,0,2.674-1.025,2.674-2.942v-.728h-.074a3.408,3.408,0,0,1-2.645,1.144,5.026,5.026,0,0,1,0-10.043,3.454,3.454,0,0,1,2.645,1.128h.074Z" fill="#4285f4" fill-rule="evenodd"/><path d="M10.009,19.5a7.9,7.9,0,0,1,7.919-7.8,7.449,7.449,0,0,1,5.349,2.154l-1.516,1.5a5.374,5.374,0,0,0-3.833-1.531,5.661,5.661,0,0,0,0,11.322,5.22,5.22,0,0,0,3.937-1.56,4.424,4.424,0,0,0,1.159-2.675h-5.1V18.785H25.1a7.116,7.116,0,0,1,.119,1.337A6.978,6.978,0,0,1,23.381,25.1a7.182,7.182,0,0,1-5.453,2.184A7.9,7.9,0,0,1,10.009,19.5Z" fill="#4285f4" fill-rule="evenodd"/><rect x="59.113" y="12.232" width="2.199" height="14.753" fill="#34a853"/><path d="M67.36,25.307a2.571,2.571,0,0,1-2.437-1.515l6.716-2.779-.223-.564a4.654,4.654,0,0,0-4.294-3.195,4.777,4.777,0,0,0-4.74,5.022A4.914,4.914,0,0,0,67.36,27.3a5.026,5.026,0,0,0,4.189-2.229l-1.708-1.143A2.891,2.891,0,0,1,67.36,25.307ZM67.2,19.186a1.909,1.909,0,0,1,1.857,1.069l-4.487,1.858A2.756,2.756,0,0,1,67.2,19.186Z" fill="#ea4335" fill-rule="evenodd"/><path d="M12.219,42.6v-6H10.04V35.84h5.2V36.6H13.062v6Z" fill="#757575"/><path d="M19.768,41.293a2.02,2.02,0,0,1-2.127,1.4c-1.4,0-2.276-1.012-2.276-2.61s.89-2.618,2.276-2.618c1.363,0,2.193.97,2.193,2.539v.309H16.2v.038c.043,1,.6,1.63,1.457,1.63a1.308,1.308,0,0,0,1.3-.684ZM16.2,39.659h2.783a1.36,1.36,0,0,0-1.354-1.486A1.439,1.439,0,0,0,16.2,39.659Z" fill="#757575"/><path d="M24.4,39.1a1.252,1.252,0,0,0-1.3-.909c-.909,0-1.48.726-1.48,1.869,0,1.167.58,1.907,1.48,1.907a1.215,1.215,0,0,0,1.3-.886h.815A1.95,1.95,0,0,1,23.1,42.689a2.326,2.326,0,0,1-2.318-2.633A2.307,2.307,0,0,1,23.1,37.461,1.982,1.982,0,0,1,25.213,39.1Z" fill="#757575"/><path d="M26.377,35.545h.806v2.8h.075a1.572,1.572,0,0,1,1.555-.885,1.666,1.666,0,0,1,1.743,1.869V42.6H29.75V39.527c0-.9-.4-1.34-1.167-1.34a1.3,1.3,0,0,0-1.4,1.425V42.6h-.806Z" fill="#757575"/><path d="M31.953,37.55h.769v.8H32.8a1.518,1.518,0,0,1,1.518-.885A1.646,1.646,0,0,1,36.08,39.33V42.6h-.806V39.527c0-.909-.384-1.34-1.19-1.34a1.281,1.281,0,0,0-1.325,1.425V42.6h-.806Z" fill="#757575"/><path d="M37.225,40.075c0-1.625.89-2.614,2.328-2.614s2.328.989,2.328,2.614-.889,2.614-2.328,2.614S37.225,41.7,37.225,40.075Zm3.823,0c0-1.2-.539-1.888-1.5-1.888s-1.494.688-1.494,1.888.539,1.888,1.494,1.888S41.048,41.27,41.048,40.075Z" fill="#757575"/><path d="M43.12,35.545h.8V42.6h-.8Z" fill="#757575"/><path d="M45.162,40.075c0-1.625.89-2.614,2.328-2.614s2.328.989,2.328,2.614-.89,2.614-2.328,2.614S45.162,41.7,45.162,40.075Zm3.823,0c0-1.2-.539-1.888-1.495-1.888S46,38.875,46,40.075s.539,1.888,1.494,1.888S48.985,41.27,48.985,40.075Z" fill="#757575"/><path d="M50.972,43.158h.853c.089.412.539.678,1.265.678.9,0,1.443-.444,1.443-1.189v-.993h-.076a1.752,1.752,0,0,1-1.583.871c-1.307,0-2.117-1.012-2.117-2.525s.82-2.539,2.117-2.539a1.81,1.81,0,0,1,1.621.89h.075v-.8h.768v5.139c0,1.129-.871,1.85-2.248,1.85C51.871,44.539,51.094,43.992,50.972,43.158Zm2.08-4.971c-.937,0-1.461.712-1.461,1.813s.524,1.813,1.461,1.813,1.5-.712,1.5-1.813S53.984,38.187,53.052,38.187Z" fill="#757575"/><path d="M56.853,44.4V43.71a1.928,1.928,0,0,0,.338.024c.464,0,.717-.221.927-.829l.094-.3L56.343,37.55h.871L58.6,41.705h.075l1.382-4.155h.857l-1.972,5.359c-.431,1.171-.834,1.518-1.729,1.518A2.492,2.492,0,0,1,56.853,44.4Z" fill="#757575"/><path d="M67.217,35.84a2.174,2.174,0,0,1-.009,4.348h-1.7V42.6h-.843V35.84Zm-1.71,3.6H67a1.427,1.427,0,1,0,0-2.848h-1.49Z" fill="#757575"/><path d="M70.1,41.185c0-.9.666-1.424,1.842-1.494L73.4,39.6v-.459c0-.623-.388-.965-1.143-.965-.6,0-1.026.23-1.138.628H70.3c.108-.811.9-1.345,1.982-1.345,1.232,0,1.92.632,1.92,1.682V42.6h-.768v-.745h-.075a1.744,1.744,0,0,1-1.555.834A1.537,1.537,0,0,1,70.1,41.185Zm3.3-.468v-.464l-1.358.089c-.768.052-1.106.318-1.106.824s.436.816,1.021.816A1.328,1.328,0,0,0,73.4,40.717Z" fill="#757575"/><path d="M75.62,37.55h.769V38.3h.074a1.411,1.411,0,0,1,1.4-.838,3.26,3.26,0,0,1,.4.024v.8a3.328,3.328,0,0,0-.516-.047,1.237,1.237,0,0,0-1.325,1.228V42.6H75.62Z" fill="#757575"/><path d="M80.621,36.243V37.55h1.125v.675H80.621v2.857c0,.595.225.848.75.848a3.425,3.425,0,0,0,.375-.019v.679a2.719,2.719,0,0,1-.474.047c-1.04,0-1.457-.384-1.457-1.349V38.225H79V37.55h.815V36.243Z" fill="#757575"/><path d="M82.9,37.55h.769v.8h.075a1.517,1.517,0,0,1,1.517-.885,1.646,1.646,0,0,1,1.766,1.869V42.6H86.22V39.527c0-.909-.385-1.34-1.19-1.34A1.281,1.281,0,0,0,83.7,39.612V42.6H82.9Z" fill="#757575"/><path d="M92.574,41.293a2.02,2.02,0,0,1-2.127,1.4c-1.4,0-2.277-1.012-2.277-2.61s.89-2.618,2.277-2.618c1.363,0,2.193.97,2.193,2.539v.309H89.009v.038c.042,1,.6,1.63,1.457,1.63a1.308,1.308,0,0,0,1.3-.684Zm-3.565-1.634h2.782a1.358,1.358,0,0,0-1.353-1.486A1.439,1.439,0,0,0,89.009,39.659Z" fill="#757575"/><path d="M93.84,37.55h.769V38.3h.074a1.411,1.411,0,0,1,1.4-.838,3.26,3.26,0,0,1,.4.024v.8a3.326,3.326,0,0,0-.515-.047,1.238,1.238,0,0,0-1.326,1.228V42.6H93.84Z" fill="#757575"/></svg>