<svg xmlns="http://www.w3.org/2000/svg" viewBox="0 0 390 200"><defs><style>.a{fill:#256ea5;}.b{fill:#169bd6;}.c{fill:#24405d;}.d,.e,.f{fill:none;stroke-miterlimit:10;}.d,.e{stroke:#284a6a;}.d{stroke-width:0.36px;}.e{stroke-width:0.18px;}.f{stroke:#24405d;stroke-width:0.14px;}.g{fill:#3378bc;}.h{fill:#00a8da;}</style></defs><title>Webinar SVG</title><path class="a" d="M280.7,118.1h1.7l-5.8,17.2h-1.7L270,120.2l-4.8,15.1h-1.8l-5.7-17.2h1.8l4.9,15.4,4.8-15.4h1.7l4.9,15.4Z"/><path class="a" d="M285.9,118.1h11.4v1.6h-9.7v6.1h8.7v1.5h-8.7v6.4h10.1v1.6H285.9Z"/><path class="a" d="M313.6,119.3a3.5,3.5,0,0,1,1.4,3.1,3.8,3.8,0,0,1-.8,2.6,4.7,4.7,0,0,1-2.4,1.3,4.7,4.7,0,0,1,3,1.4,4.1,4.1,0,0,1,1,2.9,3.9,3.9,0,0,1-1.6,3.4,7,7,0,0,1-4.6,1.3h-7.2V118.1h7.2A6.2,6.2,0,0,1,313.6,119.3Zm-1.3,5.6a2.6,2.6,0,0,0,1-2.3,2.6,2.6,0,0,0-1-2.2,4.1,4.1,0,0,0-2.8-.7h-5.4v6h5.4A4.7,4.7,0,0,0,312.3,124.9Zm.6,8a2.9,2.9,0,0,0,1.2-2.5,2.9,2.9,0,0,0-1.2-2.4,6.6,6.6,0,0,0-3.4-.8h-5.4v6.5h5.4A5.5,5.5,0,0,0,312.9,132.9Z"/><path class="a" d="M320.6,118.1h1.7v17.2h-1.7Z"/><path class="a" d="M340.7,118.1h1.6v17.2h-1.8l-10.6-14.5v14.5h-1.7V118.1H330l10.7,14.5Z"/><path class="a" d="M361.1,135.3l-2-4.6h-9.5l-2,4.6h-1.8l7.7-17.2h1.7l7.8,17.2Zm-10.9-6.1h8.2l-4.1-9.3Z"/><path class="a" d="M377.7,135.3l-3.7-5.6h-5.9v5.6h-1.7V118.1h6.4a7.4,7.4,0,0,1,4.9,1.5,5.2,5.2,0,0,1,1.8,4.2,6.1,6.1,0,0,1-1.1,3.6,5.2,5.2,0,0,1-2.9,2l4.1,5.9Zm-4.9-7.1a5.8,5.8,0,0,0,3.7-1.1,3.8,3.8,0,0,0,1.3-3.2,3.9,3.9,0,0,0-1.3-3.2,5.8,5.8,0,0,0-3.7-1h-4.7v8.5Z"/><path class="b" d="M133.2,109.9V94.4H114.5v15.5h-7.3V71.6h7.3V87.7h18.7V71.6h7.2v38.3Z"/><path class="a" d="M176.8,102.6h-20l-3.2,7.2h-7.8l17.1-38.2h7.9l17.1,38.2H180Zm-10-23-7.1,16.3h14.2Z"/><path class="c" d="M211.6,98.6H200.8v11.2h-7.2V71.6h18C230.3,71.5,230.3,98.6,211.6,98.6ZM200.8,92h10.8c9.3,0,9.2-13.6,0-13.6H200.8Z"/><path class="c" d="M265.3,109.8h-8.6L245.6,97h-6.9v12.8h-7.2V71.5h18.1c9,.1,13.8,6,13.8,12.7s-2.4,10.5-9.7,12l11.6,13ZM238.7,78.3V90.6h11c4.5,0,6.5-3.1,6.5-6.2s-2-6.1-6.5-6.1Z"/><path class="c" d="M306.7,90.9c-.1,9.9-6.2,19.8-19.6,19.8S267.4,101,267.4,91s6.5-20.1,19.7-20.1S306.8,80.9,306.7,90.9Zm-32.1.2c.1,6.3,3.5,13,12.5,13s12.4-6.8,12.5-13.1-3.5-13.6-12.5-13.6S274.4,84.7,274.6,91.1Z"/><path class="c" d="M333.7,71.6h7.9v.3l-13,18.6,13.3,19.1v.2h-8l-9.8-14.3-9.8,14.3h-8v-.2l13.3-19.1L306.7,71.9v-.3h7.9l9.5,14.2Z"/><path class="c" d="M363.6,87.4l10.1-15.8h8.7v.3L367.2,94v15.8H360V94L345.3,71.9v-.3h8.6Z"/><line class="d" x1="52.2" y1="79.3" x2="43" y2="68.9"/><line class="e" x1="23.2" y1="71.3" x2="30.4" y2="81.8"/><line class="d" x1="52.2" y1="79.3" x2="61.3" y2="68.8"/><line class="d" x1="63.2" y1="90.9" x2="74" y2="81.8"/><line class="d" x1="63.2" y1="90.9" x2="74" y2="100.4"/><line class="d" x1="61.4" y1="112.4" x2="52.2" y2="102.2"/><line class="d" x1="43" y1="112.4" x2="52.2" y2="102.2"/><line class="d" x1="30.4" y1="100" x2="40.8" y2="90.9"/><line class="d" x1="30.4" y1="81.8" x2="40.8" y2="90.9"/><line class="d" x1="52.2" y1="79.3" x2="30.4" y2="81.8"/><line class="d" x1="52.2" y1="79.3" x2="74" y2="81.8"/><line class="d" x1="63.2" y1="90.9" x2="61.3" y2="68.8"/><line class="d" x1="63.2" y1="90.9" x2="61.4" y2="112.4"/><line class="d" x1="74" y1="100.4" x2="52.2" y2="102.2"/><line class="d" x1="30.4" y1="100" x2="52.2" y2="102.2"/><line class="d" x1="43" y1="112.4" x2="40.8" y2="90.9"/><line class="d" x1="43" y1="68.9" x2="40.8" y2="90.9"/><line class="e" x1="20.4" y1="84.6" x2="30.4" y2="81.8"/><line class="e" x1="32.5" y1="61.4" x2="43" y2="68.9"/><line class="e" x1="45.4" y1="56.7" x2="43" y2="68.9"/><line class="e" x1="45.4" y1="56.7" x2="61.3" y2="68.8"/><line class="e" x1="58.9" y1="56.7" x2="61.3" y2="68.8"/><line class="e" x1="71.8" y1="61.4" x2="61.3" y2="68.8"/><line class="e" x1="81.2" y1="71.3" x2="61.3" y2="68.8"/><line class="e" x1="74" y1="81.8" x2="81.2" y2="71.3"/><line class="e" x1="74" y1="81.8" x2="84.2" y2="84.6"/><line class="e" x1="74" y1="81.8" x2="84" y2="97"/><line class="e" x1="58.9" y1="56.7" x2="43" y2="68.9"/><line class="e" x1="74" y1="81.8" x2="71.8" y2="61.4"/><line class="e" x1="74" y1="100.4" x2="84" y2="97"/><line class="e" x1="74" y1="100.4" x2="84.2" y2="84.6"/><line class="e" x1="74" y1="100.4" x2="81.2" y2="110.1"/><line class="e" x1="74" y1="100.4" x2="71.8" y2="120"/><line class="e" x1="61.4" y1="112.4" x2="71.8" y2="120"/><line class="e" x1="61.4" y1="112.4" x2="81.2" y2="110.1"/><line class="e" x1="61.4" y1="112.4" x2="59" y2="124.7"/><line class="e" x1="61.4" y1="112.4" x2="45.4" y2="124.7"/><line class="e" x1="43" y1="112.4" x2="45.4" y2="124.7"/><line class="e" x1="43" y1="112.4" x2="59" y2="124.7"/><line class="e" x1="43" y1="112.4" x2="32.5" y2="120"/><line class="e" x1="43" y1="112.4" x2="23.2" y2="110.2"/><line class="e" x1="30.4" y1="100" x2="23.2" y2="110.2"/><line class="e" x1="30.4" y1="100" x2="32.5" y2="120"/><line class="e" x1="30.4" y1="100" x2="20.3" y2="96.9"/><line class="e" x1="30.4" y1="81.8" x2="20.3" y2="96.9"/><line class="e" x1="30.4" y1="100" x2="20.4" y2="84.6"/><line class="e" x1="32.5" y1="61.4" x2="30.4" y2="81.8"/><line class="e" x1="23.2" y1="71.3" x2="43" y2="68.9"/><line class="f" x1="32.5" y1="61.4" x2="24.8" y2="57.8"/><line class="f" x1="32.5" y1="61.4" x2="31.9" y2="53"/><line class="f" x1="45.4" y1="56.7" x2="31.9" y2="53"/><line class="f" x1="45.4" y1="56.7" x2="39.6" y2="49.6"/><line class="f" x1="45.4" y1="56.7" x2="47.8" y2="48.2"/><line class="f" x1="32.5" y1="61.4" x2="39.6" y2="49.6"/><line class="f" x1="58.9" y1="56.7" x2="47.8" y2="48.2"/><line class="f" x1="58.9" y1="56.7" x2="56.4" y2="47.9"/><line class="f" x1="45.4" y1="56.7" x2="56.4" y2="47.9"/><line class="f" x1="58.9" y1="56.7" x2="64.7" y2="49.6"/><line class="f" x1="71.8" y1="61.4" x2="64.7" y2="49.6"/><line class="f" x1="71.8" y1="61.4" x2="72.5" y2="53"/><line class="f" x1="58.9" y1="56.7" x2="72.5" y2="53"/><line class="f" x1="71.8" y1="61.4" x2="79.7" y2="57.4"/><line class="f" x1="71.8" y1="61.4" x2="85.5" y2="63.5"/><line class="f" x1="81.2" y1="71.3" x2="85.5" y2="63.5"/><line class="f" x1="81.2" y1="71.3" x2="79.7" y2="57.4"/><line class="f" x1="81.2" y1="71.3" x2="90.2" y2="70.6"/><line class="f" x1="81.2" y1="71.3" x2="93.5" y2="78.3"/><line class="f" x1="84.2" y1="84.6" x2="90.2" y2="70.6"/><line class="f" x1="84.2" y1="84.6" x2="93.5" y2="78.3"/><line class="f" x1="84.2" y1="84.6" x2="94.6" y2="86.7"/><line class="f" x1="84" y1="97" x2="94.6" y2="86.7"/><line class="f" x1="84" y1="97" x2="94.9" y2="95"/><line class="f" x1="84.2" y1="84.6" x2="94.9" y2="95"/><line class="f" x1="84" y1="97" x2="93.3" y2="103.2"/><line class="f" x1="81.2" y1="110.1" x2="93.3" y2="103.2"/><line class="f" x1="81.2" y1="110.1" x2="90.1" y2="111"/><line class="f" x1="84" y1="97" x2="90.1" y2="111"/><line class="f" x1="81.2" y1="110.1" x2="85.4" y2="118"/><line class="f" x1="81.2" y1="110.1" x2="79.6" y2="123.9"/><line class="f" x1="79.6" y1="123.9" x2="71.8" y2="120"/><line class="f" x1="71.8" y1="120" x2="72.4" y2="128.7"/><line class="f" x1="71.8" y1="120" x2="85.4" y2="118"/><line class="f" x1="71.8" y1="120" x2="64.7" y2="132"/><line class="f" x1="59" y1="124.7" x2="64.7" y2="132"/><line class="f" x1="59" y1="124.7" x2="72.4" y2="128.7"/><line class="f" x1="59" y1="124.7" x2="56.4" y2="133.7"/><line class="f" x1="59" y1="124.7" x2="47.8" y2="133.7"/><line class="f" x1="45.4" y1="124.7" x2="47.8" y2="133.7"/><line class="f" x1="45.4" y1="124.7" x2="56.4" y2="133.7"/><line class="f" x1="45.4" y1="124.7" x2="39.7" y2="132"/><line class="f" x1="32.5" y1="120" x2="39.7" y2="132"/><line class="f" x1="45.4" y1="124.7" x2="31.8" y2="128.9"/><line class="f" x1="32.5" y1="120" x2="31.8" y2="128.9"/><line class="f" x1="32.5" y1="120" x2="24.7" y2="124.3"/><line class="f" x1="23.2" y1="110.2" x2="24.7" y2="124.3"/><line class="f" x1="32.5" y1="120" x2="18.8" y2="118.1"/><line class="f" x1="23.2" y1="110.2" x2="18.8" y2="118.1"/><line class="f" x1="23.2" y1="110.2" x2="14.2" y2="111.1"/><line class="f" x1="23.2" y1="110.2" x2="10.8" y2="103.3"/><line class="f" x1="20.3" y1="96.9" x2="10.8" y2="103.3"/><line class="f" x1="20.3" y1="96.9" x2="9.5" y2="95"/><line class="f" x1="20.3" y1="96.9" x2="14.2" y2="111.1"/><line class="f" x1="20.4" y1="84.6" x2="9.5" y2="95"/><line class="f" x1="20.3" y1="96.9" x2="9.5" y2="86.7"/><line class="f" x1="20.4" y1="84.6" x2="11.1" y2="78.4"/><line class="f" x1="20.4" y1="84.6" x2="9.5" y2="86.7"/><line class="f" x1="20.4" y1="84.6" x2="14.2" y2="70.6"/><line class="f" x1="23.2" y1="71.3" x2="14.2" y2="70.6"/><line class="f" x1="23.2" y1="71.3" x2="11.1" y2="78.4"/><line class="f" x1="23.2" y1="71.3" x2="18.9" y2="63.9"/><line class="f" x1="23.2" y1="71.3" x2="24.8" y2="57.8"/><line class="f" x1="32.5" y1="61.4" x2="18.9" y2="63.9"/><rect class="a" x="35.6" y="85.6" width="10.5" height="10.52" transform="translate(-50.4 131.1) rotate(-89.6)"/><rect class="a" x="46.9" y="74" width="10.5" height="10.52" transform="translate(-27.5 130.9) rotate(-89.6)"/><rect class="a" x="46.9" y="97" width="10.5" height="10.52" transform="translate(-50.5 153.8) rotate(-89.6)"/><rect class="a" x="58.4" y="85.6" width="10.5" height="10.52" transform="translate(-27.7 153.8) rotate(-89.6)"/><rect class="g" x="57.7" y="65.2" width="7.3" height="7.33" transform="translate(-7.9 129.7) rotate(-89.6)"/><rect class="g" x="39.4" y="65.2" width="7.3" height="7.33" transform="translate(-26.1 111.4) rotate(-89.6)"/><rect class="g" x="26.7" y="78.1" width="7.3" height="7.33" transform="translate(-51.6 111.6) rotate(-89.6)"/><rect class="g" x="26.8" y="96.5" width="7.3" height="7.33" transform="translate(-70.1 129.6) rotate(-89.4)"/><rect class="g" x="70.4" y="96.4" width="7.3" height="7.33" transform="translate(-26.5 173.4) rotate(-89.6)"/><rect class="g" x="70.6" y="78.2" width="7.3" height="7.33" transform="translate(-8.4 155.3) rotate(-89.4)"/><rect class="b" x="20.7" y="68.9" width="4.8" height="4.79" transform="translate(-48.3 93.9) rotate(-89.6)"/><rect class="b" x="30.1" y="59.1" width="4.8" height="4.79" transform="translate(-29.2 93.6) rotate(-89.6)"/><rect class="b" x="43" y="54.4" width="4.8" height="4.79" transform="translate(-11.7 101.7) rotate(-89.6)"/><rect class="b" x="17.9" y="82.2" width="4.8" height="4.76" transform="translate(-64.4 104.3) rotate(-89.6)"/><rect class="b" x="78.8" y="68.9" width="4.8" height="4.79" transform="translate(-0.5 0.6) rotate(-0.4)"/><rect class="b" x="69.4" y="59" width="4.8" height="4.79" transform="translate(-0.4 0.5) rotate(-0.4)"/><rect class="b" x="56.5" y="54.3" width="4.8" height="4.79" transform="translate(-0.4 0.4) rotate(-0.4)"/><rect class="b" x="81.6" y="82.2" width="4.8" height="4.79" transform="translate(-0.6 0.6) rotate(-0.4)"/><rect class="g" x="39.3" y="108.9" width="7.3" height="7.33" transform="translate(-69.9 154.8) rotate(-89.6)"/><rect class="g" x="57.6" y="108.9" width="7.3" height="7.33" transform="translate(-51.7 173.1) rotate(-89.6)"/><rect class="b" x="78.8" y="107.8" width="4.8" height="4.79" transform="translate(-29.6 190.6) rotate(-89.6)"/><rect class="b" x="69.4" y="117.6" width="4.8" height="4.79" transform="translate(-48.6 191) rotate(-89.6)"/><rect class="b" x="56.5" y="122.3" width="4.8" height="4.79" transform="translate(-66.1 182.8) rotate(-89.6)"/><rect class="b" x="81.6" y="94.4" width="4.8" height="4.79" transform="translate(-13.4 180.2) rotate(-89.6)"/><rect class="b" x="20.8" y="107.7" width="4.8" height="4.79" transform="translate(-0.8 0.2) rotate(-0.4)"/><rect class="b" x="30.1" y="117.6" width="4.8" height="4.79" transform="translate(-0.8 0.2) rotate(-0.4)"/><rect class="b" x="43" y="122.3" width="4.8" height="4.79" transform="translate(-0.9 0.3) rotate(-0.4)"/><rect class="b" x="18" y="94.5" width="4.8" height="4.79" transform="translate(-0.7 0.1) rotate(-0.4)"/><rect class="h" x="23.5" y="56.4" width="2.6" height="2.65" transform="translate(-33.1 82.1) rotate(-89.6)"/><rect class="h" x="8.2" y="85.4" width="2.6" height="2.65" transform="translate(-77.2 95.6) rotate(-89.6)"/><rect class="h" x="9.8" y="77.1" width="2.6" height="2.65" transform="translate(-67.4 89) rotate(-89.6)"/><rect class="h" x="38.3" y="48.3" width="2.6" height="2.65" transform="translate(-10.2 88.9) rotate(-89.6)"/><rect class="h" x="13" y="69.3" width="2.6" height="2.65" transform="translate(-56.4 84.4) rotate(-89.6)"/><rect class="h" x="17.7" y="62.3" width="2.6" height="2.65" transform="translate(-44.7 82.1) rotate(-89.6)"/><rect class="h" x="30.6" y="51.7" width="2.6" height="2.65" transform="translate(-0.4 0.2) rotate(-0.4)"/><rect class="h" x="46.6" y="46.6" width="2.6" height="2.65" transform="translate(-0.3 0.3) rotate(-0.4)"/><rect class="h" x="88.9" y="69.3" width="2.6" height="2.65" transform="translate(18.9 160.3) rotate(-89.6)"/><rect class="h" x="92.2" y="77.1" width="2.6" height="2.65" transform="translate(14.5 171.4) rotate(-89.6)"/><rect class="h" x="84.2" y="62.3" width="2.6" height="2.65" transform="translate(21.3 148.7) rotate(-89.6)"/><rect class="h" x="93.6" y="85.3" width="2.6" height="2.65" transform="translate(7.6 180.9) rotate(-89.6)"/><rect class="h" x="55.1" y="46.6" width="2.6" height="2.65" transform="translate(8.1 103.9) rotate(-89.6)"/><rect class="h" x="63.4" y="48.2" width="2.6" height="2.65" transform="translate(14.7 113.9) rotate(-89.6)"/><rect class="h" x="23.5" y="56.4" width="2.6" height="2.65" transform="translate(-33.1 82.1) rotate(-89.6)"/><rect class="h" x="8.2" y="85.4" width="2.6" height="2.65" transform="translate(-77.2 95.6) rotate(-89.6)"/><rect class="h" x="78.4" y="56.4" width="2.6" height="2.65" transform="translate(21.4 137) rotate(-89.6)"/><rect class="h" x="9.8" y="77.1" width="2.6" height="2.65" transform="translate(-67.4 89) rotate(-89.6)"/><rect class="h" x="38.3" y="48.3" width="2.6" height="2.65" transform="translate(-10.2 88.9) rotate(-89.6)"/><rect class="h" x="13" y="69.3" width="2.6" height="2.65" transform="translate(-56.4 84.4) rotate(-89.6)"/><rect class="h" x="17.7" y="62.3" width="2.6" height="2.65" transform="translate(-44.7 82.1) rotate(-89.6)"/><rect class="h" x="30.6" y="51.7" width="2.6" height="2.65" transform="translate(-0.4 0.2) rotate(-0.4)"/><rect class="h" x="46.6" y="46.6" width="2.6" height="2.65" transform="translate(-0.3 0.3) rotate(-0.4)"/><rect class="h" x="71.2" y="51.7" width="2.6" height="2.65" transform="translate(19.1 125.2) rotate(-89.6)"/><rect class="h" x="93.6" y="85.3" width="2.6" height="2.65" transform="translate(7.6 180.9) rotate(-89.6)"/><rect class="h" x="55.1" y="46.6" width="2.6" height="2.65" transform="translate(8.1 103.9) rotate(-89.6)"/><rect class="h" x="63.4" y="48.2" width="2.6" height="2.65" transform="translate(14.7 113.9) rotate(-89.6)"/><rect class="h" x="78.4" y="122.6" width="2.6" height="2.65" transform="translate(-44.8 202.8) rotate(-89.6)"/><rect class="h" x="93.6" y="93.6" width="2.6" height="2.65" transform="translate(-0.7 189.2) rotate(-89.6)"/><rect class="h" x="23.5" y="122.6" width="2.6" height="2.65" transform="translate(-99.3 147.9) rotate(-89.6)"/><rect class="h" x="92.2" y="102" width="2.6" height="2.65" transform="translate(-10.4 196.1) rotate(-89.6)"/><rect class="h" x="63.4" y="130.7" width="2.6" height="2.65" transform="translate(-67.8 195.9) rotate(-89.6)"/><rect class="h" x="88.8" y="109.8" width="2.6" height="2.65" transform="translate(-21.6 200.5) rotate(-89.6)"/><rect class="h" x="84.2" y="116.8" width="2.6" height="2.65" transform="translate(-33.2 202.9) rotate(-89.6)"/><rect class="h" x="71.2" y="127.5" width="2.6" height="2.65" transform="translate(-0.9 0.5) rotate(-0.4)"/><rect class="h" x="55.2" y="132.4" width="2.6" height="2.65" transform="translate(-0.9 0.4) rotate(-0.4)"/><rect class="h" x="30.6" y="127.6" width="2.6" height="2.65" transform="translate(-97.2 159.9) rotate(-89.6)"/><rect class="h" x="12.9" y="109.7" width="2.6" height="2.65" transform="translate(-96.9 124.5) rotate(-89.6)"/><rect class="h" x="9.8" y="102" width="2.6" height="2.65" transform="translate(-92.3 113.7) rotate(-89.6)"/><rect class="h" x="17.6" y="116.8" width="2.6" height="2.65" transform="translate(-99.3 136.3) rotate(-89.6)"/><rect class="h" x="8.2" y="93.7" width="2.6" height="2.65" transform="translate(-85.5 103.8) rotate(-89.6)"/><rect class="h" x="46.7" y="132.4" width="2.6" height="2.65" transform="translate(-86 180.8) rotate(-89.6)"/><rect class="h" x="38.4" y="130.7" width="2.6" height="2.65" transform="translate(-92.7 170.8) rotate(-89.6)"/></svg>